<?xml version="1.0" encoding="utf-8"?>
<!-- Generator: Adobe Illustrator 16.0.0, SVG Export Plug-In . SVG Version: 6.00 Build 0)  -->
<!DOCTYPE svg PUBLIC "-//W3C//DTD SVG 1.1//EN" "http://www.w3.org/Graphics/SVG/1.1/DTD/svg11.dtd">
<svg version="1.1" id="logo-img" xmlns="http://www.w3.org/2000/svg" xmlns:xlink="http://www.w3.org/1999/xlink" x="0px" y="0px"
	 width="563px" height="110.7px" viewBox="0 0 563 110.7" enable-background="new 0 0 563 110.7" xml:space="preserve">
<rect x="14" y="16.9" fill="#FFFFFF" width="57" height="57"/>
<g>
	<g>
		<path fill="#002E5D" d="M136.6,71.4c-4,0-7.7-0.7-11-2.1c-3.4-1.4-6.2-3.3-8.7-5.7c-2.4-2.4-4.3-5.2-5.7-8.4
			c-1.4-3.2-2-6.7-2-10.4v-0.1c0-3.7,0.7-7.2,2.1-10.4c1.4-3.2,3.3-6.1,5.7-8.5c2.4-2.4,5.3-4.4,8.7-5.8c3.4-1.4,7.1-2.1,11.1-2.1
			c4,0,7.7,0.7,11,2.1c3.4,1.4,6.2,3.3,8.7,5.7c2.4,2.4,4.3,5.2,5.7,8.4c1.4,3.2,2,6.7,2,10.4v0.1c0,3.7-0.7,7.2-2.1,10.4
			c-1.4,3.2-3.3,6.1-5.7,8.5c-2.4,2.4-5.4,4.4-8.7,5.8C144.3,70.7,140.6,71.4,136.6,71.4z M136.7,60.9c2.3,0,4.4-0.4,6.3-1.3
			c1.9-0.8,3.6-2,4.9-3.5c1.4-1.5,2.4-3.2,3.2-5.1c0.8-1.9,1.1-4,1.1-6.2v-0.1c0-2.2-0.4-4.3-1.1-6.3c-0.8-2-1.8-3.7-3.3-5.2
			c-1.4-1.5-3.1-2.6-5-3.5c-1.9-0.9-4-1.3-6.3-1.3c-2.3,0-4.4,0.4-6.3,1.3c-1.9,0.8-3.5,2-4.9,3.5c-1.4,1.5-2.4,3.2-3.2,5.1
			c-0.8,1.9-1.1,4-1.1,6.2v0.1c0,2.2,0.4,4.3,1.1,6.3c0.8,2,1.8,3.7,3.3,5.2c1.4,1.5,3.1,2.7,5,3.5
			C132.3,60.5,134.4,60.9,136.7,60.9z"/>
	</g>
	<g>
		<path fill="#002E5D" d="M173.4,18.7h10.5l24.3,31.9V18.7h11.2v51.8h-9.7l-25.1-32.9v32.9h-11.2V18.7z"/>
	</g>
	<g>
		<path fill="#002E5D" d="M231.5,18.7h39v10.1h-27.7v10.5h24.4v10.1h-24.4v10.9h28.1v10.1h-39.3V18.7z"/>
	</g>
	<g>
		<path fill="#002E5D" d="M281,18.7h11.4v41.5h25.8v10.3H281V18.7z"/>
	</g>
	<g>
		<path fill="#002E5D" d="M325.3,18.7h11.4v51.8h-11.4V18.7z"/>
	</g>
	<g>
		<path fill="#002E5D" d="M365.7,18.4h10.5l22.2,52.1h-11.9l-4.7-11.6h-21.9l-4.7,11.6h-11.6L365.7,18.4z M377.7,48.8l-6.9-16.8
			l-6.9,16.8H377.7z"/>
	</g>
	<g>
		<path fill="#002E5D" d="M405.1,18.7h10.5l24.3,31.9V18.7h11.2v51.8h-9.7l-25.1-32.9v32.9h-11.2V18.7z"/>
	</g>
	<g>
		<path fill="#002E5D" d="M487,71.4c-3.8,0-7.3-0.7-10.6-2.1c-3.3-1.4-6.1-3.3-8.4-5.7c-2.4-2.4-4.2-5.2-5.5-8.5
			c-1.3-3.3-2-6.7-2-10.4v-0.1c0-3.7,0.7-7.2,2-10.4c1.3-3.2,3.2-6.1,5.5-8.5c2.4-2.4,5.2-4.4,8.5-5.8c3.3-1.4,7-2.1,10.9-2.1
			c2.4,0,4.6,0.2,6.6,0.6c2,0.4,3.8,0.9,5.4,1.6c1.6,0.7,3.1,1.5,4.5,2.5c1.4,1,2.7,2.1,3.8,3.3l-7.2,8.4c-2-1.8-4.1-3.3-6.2-4.3
			c-2.1-1-4.5-1.5-7.1-1.5c-2.2,0-4.2,0.4-6,1.3c-1.8,0.8-3.4,2-4.8,3.5c-1.3,1.5-2.4,3.2-3.1,5.1c-0.7,1.9-1.1,4-1.1,6.2v0.1
			c0,2.2,0.4,4.3,1.1,6.3c0.7,2,1.8,3.7,3.1,5.2c1.3,1.5,2.9,2.7,4.7,3.5c1.8,0.9,3.9,1.3,6.1,1.3c3,0,5.5-0.5,7.5-1.6
			c2-1.1,4.1-2.6,6.1-4.4l7.2,7.3c-1.3,1.4-2.7,2.7-4.1,3.8c-1.4,1.1-3,2.1-4.7,2.9c-1.7,0.8-3.6,1.4-5.6,1.8
			C491.8,71.2,489.5,71.4,487,71.4z"/>
	</g>
	<g>
		<path fill="#002E5D" d="M515.8,18.7h39v10.1h-27.7v10.5h24.4v10.1h-24.4v10.9h28.1v10.1h-39.3V18.7z"/>
	</g>
</g>
<g>
	<path fill="#72D54A" d="M76.7,7.1H10c-2.9,0-5.2,2.3-5.2,5.2v66.2c0,2.9,2.3,5.2,5.2,5.2h66.8c2.9,0,5.2-2.3,5.2-5.2V12.3
		C81.9,9.4,79.6,7.1,76.7,7.1z M66.3,70.6H22.6v-11h8.9h0.3V32.3l-9.5,2.3l-2.5-9.8l15.7-4.7h8.2v39.5h11.6v-5.7h11V70.6z"/>
</g>
<g>
	<g>
		<path fill="#9A9B9A" d="M124.3,100.2h-5.6v5.8H115V86.2c3.1,0,6.2,0,9.3,0C134,86.2,134,100.2,124.3,100.2z M118.7,96.8h5.6
			c4.8,0,4.7-7,0-7h-5.6V96.8z"/>
		<path fill="#9A9B9A" d="M154,106h-4.4l-5.7-6.6h-3.6v6.6h-3.7V86.2c3.1,0,6.3,0,9.4,0c4.6,0,7.1,3.1,7.1,6.5c0,2.7-1.2,5.4-5,6.2
			l6,6.7V106z M140.2,89.7V96h5.7c2.4,0,3.4-1.6,3.4-3.2c0-1.6-1-3.2-3.4-3.2H140.2z"/>
		<path fill="#9A9B9A" d="M173.3,106h-14.8c0-6.6,0-13.2,0-19.7h14.8v3.6h-11.1v4.5h10.7v3.5h-10.7v4.5h11.1V106z"/>
		<path fill="#9A9B9A" d="M196.6,91.7l-6.4,8.6h-0.7l-6.3-8.6V106h-3.7V86.3h4.3l6.2,8.5l6.2-8.5h4.3V106h-3.7V91.7z"/>
		<path fill="#9A9B9A" d="M206.9,106V86.2h3.7V106H206.9z"/>
		<path fill="#9A9B9A" d="M231.9,106h-14.8c0-6.6,0-13.2,0-19.7h14.8v3.6h-11.1v4.5h10.7v3.5h-10.7v4.5h11.1V106z"/>
		<path fill="#9A9B9A" d="M255.5,106H251l-5.7-6.6h-3.6v6.6H238V86.2c3.1,0,6.3,0,9.4,0c4.6,0,7.1,3.1,7.1,6.5c0,2.7-1.2,5.4-5,6.2
			l6,6.7V106z M241.7,89.7V96h5.7c2.4,0,3.4-1.6,3.4-3.2c0-1.6-1-3.2-3.4-3.2H241.7z"/>
		<path fill="#9A9B9A" d="M285.7,95.9c0.1,5-3,10-9.9,10c-2.4,0-5.3,0-7.7,0V86.2c2.4,0,5.3,0,7.7,0
			C282.6,86.2,285.6,91.1,285.7,95.9z M271.8,102.4h4.1c4.5,0,6.3-3.3,6.2-6.5c-0.1-3.1-1.9-6.1-6.2-6.1h-4.1V102.4z"/>
		<path fill="#9A9B9A" d="M305.9,106h-14.8c0-6.6,0-13.2,0-19.7h14.8v3.6h-11.1v4.5h10.7v3.5h-10.7v4.5h11.1V106z"/>
		<path fill="#9A9B9A" d="M316.6,89.6h-6.3v-3.4c5.7,0,10.5,0,16.2,0v3.4h-6.3V106h-3.7V89.6z"/>
		<path fill="#9A9B9A" d="M343.2,102.2h-10.3l-1.7,3.7h-4l8.8-19.7h4.1l8.8,19.7h-4.1L343.2,102.2z M338,90.4l-3.7,8.4h7.3L338,90.4
			z"/>
		<path fill="#9A9B9A" d="M353.2,106V86.2h3.7V106H353.2z"/>
		<path fill="#9A9B9A" d="M367.2,86.2v16.3h10.1v3.4h-13.9V86.2H367.2z"/>
		<path fill="#9A9B9A" d="M382.2,106V86.2h3.7V106H382.2z"/>
		<path fill="#9A9B9A" d="M405.2,86.2h3.7V106h-2.3v0l-10.4-13.3V106h-3.7V86.2h3l9.7,12.2V86.2z"/>
		<path fill="#9A9B9A" d="M430,91.1c-1.3-1.3-3.3-2-5-2c-4.2,0-6.8,3.2-6.8,7.3c0,3.2,1.9,6.6,6.8,6.6c1.5,0,2.9-0.3,4.5-1.6v-3.5
			h-5v-3.3h8.5v8.3c-1.9,2.2-4.4,3.6-7.9,3.6c-7.4,0-10.4-4.9-10.4-10.1c0-5.6,3.5-10.7,10.4-10.7c2.6,0,5.3,1,7.3,3L430,91.1z"/>
		<path fill="#9A9B9A" d="M461.9,91.1c-1.3-1.3-3.3-2-5-2c-4.2,0-6.8,3.2-6.8,7.3c0,3.2,1.9,6.6,6.8,6.6c1.5,0,2.9-0.3,4.5-1.6v-3.5
			h-5v-3.3h8.5v8.3c-1.9,2.2-4.4,3.6-7.9,3.6c-7.4,0-10.4-4.9-10.4-10.1c0-5.6,3.5-10.7,10.4-10.7c2.6,0,5.3,1,7.3,3L461.9,91.1z"/>
		<path fill="#9A9B9A" d="M488.3,106h-4.4l-5.8-6.6h-3.6v6.6h-3.7V86.2c3.1,0,6.3,0,9.4,0c4.7,0,7.1,3.1,7.1,6.5
			c0,2.7-1.2,5.4-5,6.2l6,6.7V106z M474.6,89.7V96h5.7c2.4,0,3.4-1.6,3.4-3.2c0-1.6-1-3.2-3.4-3.2H474.6z"/>
		<path fill="#9A9B9A" d="M512,96.2c-0.1,5.1-3.2,10.2-10.1,10.2c-6.9,0-10.1-5-10.1-10.2c0-5.2,3.3-10.4,10.1-10.4
			C508.7,85.8,512.1,91.1,512,96.2z M495.4,96.3c0.1,3.2,1.8,6.7,6.5,6.7c4.6,0,6.4-3.5,6.5-6.7c0.1-3.3-1.8-7-6.5-7
			C497.2,89.2,495.3,93,495.4,96.3z"/>
		<path fill="#9A9B9A" d="M534.7,86.3v11.3c0,5.8-3.6,8.8-8.5,8.8c-4.7,0-8.8-2.9-8.8-8.8V86.3h3.7v11.3c0,3.6,2,5.4,5.1,5.4
			c3.1,0,4.8-2.1,4.8-5.4V86.3H534.7z"/>
		<path fill="#9A9B9A" d="M550.6,100.2H545v5.8h-3.7V86.2c3.1,0,6.2,0,9.3,0C560.2,86.2,560.2,100.2,550.6,100.2z M545,96.8h5.6
			c4.8,0,4.7-7,0-7H545V96.8z"/>
	</g>
</g>
</svg>
